<svg id="Layer_1" data-name="Layer 1" xmlns="http://www.w3.org/2000/svg" viewBox="0 0 94.1624 50.0358"><defs><style>.cls-1{fill:#a1d6bb;}</style></defs><title>BUTO-NFT-Marketplace-assets</title><path class="cls-1" d="M61.3979,46.8733a25.0218,25.0218,0,1,1,9.7539-33.92A25.0027,25.0027,0,0,1,61.3979,46.8733Zm-1.8547-3.2686A21.265,21.265,0,1,0,30.648,35.3579,21.2323,21.2323,0,0,0,59.5432,43.6047Z"/><path class="cls-1" d="M14.7533,26.2585,0,15.776l23.7783-.2526a27.4528,27.4528,0,0,0,.9444,21.27L.56,37.0493l-.08-.1851Z"/><path class="cls-1" d="M82.2516,25.2844l11.769,8.9233-19.4019-.395a22.4032,22.4032,0,0,0-.2327-17.3734l19.7157.402.0607.153Z"/><path class="cls-1" d="M48.6019,12.2756c1.145,2.5648,2.2059,4.9875,3.3222,7.3844a1.4131,1.4131,0,0,0,.8747.685c2.5912.528,5.1944.9969,7.93,1.51-.2776.2734-.4669.4746-.6715.659-1.7,1.5332-3.38,3.09-5.12,4.5784a1.57,1.57,0,0,0-.5838,1.62c.361,2.4966.6672,5.0011,1.013,7.6478-.3287-.1546-.5615-.2444-.7749-.3676-2.0376-1.1763-4.0784-2.3472-6.1021-3.5468a1.2607,1.2607,0,0,0-1.38-.0933c-2.2112,1.0974-4.4561,2.1266-6.69,3.1787-.1539.0725-.3163.127-.57.2278.5536-2.5891,1.0647-5.0932,1.6376-7.5831a1.5662,1.5662,0,0,0-.4418-1.6468c-1.7858-1.8245-3.5216-3.698-5.3974-5.681,1.91-.2043,3.6668-.3913,5.4231-.58,1.0638-.1144,2.3291.0817,3.1338-.4364.7994-.5146,1.1476-1.7421,1.6718-2.6693C46.7672,15.5866,47.64,14.002,48.6019,12.2756Z"/></svg>