<svg id="Layer_1" data-name="Layer 1" xmlns="http://www.w3.org/2000/svg" viewBox="0 0 61.1399 50.8649"><defs><style>.cls-1{fill:#a1d6bb;}</style></defs><title>BUTO-NFT-Marketplace-assets</title><path class="cls-1" d="M34.83,44.0916H14.9378a3.6025,3.6025,0,0,1,1.8949,3.236,3.4122,3.4122,0,0,1-1.1359,2.5681,3.5822,3.5822,0,0,1-5.2379-.3665,3.6612,3.6612,0,0,1,1.0528-5.45H8.1a1.6029,1.6029,0,0,1-1.7506-1.4519,2.0125,2.0125,0,0,1,.4873-1.7915,1.3453,1.3453,0,0,1,1.0181-.451c.16-.0015.3211,0,.4817,0q14.8749,0,29.75-.0012c.4993,0,.39.0656.5034-.3865q.679-2.7131,1.3495-5.4284c.0183-.0735.0337-.1477.0585-.2574h-.255q-16.0332,0-32.0665.0023A2.66,2.66,0,0,1,6.55,34.1614a2.1005,2.1005,0,0,1-1.228-1.53q-.8374-3.583-1.6823-7.1643Q1.8565,17.879.0743,10.2907a1.9867,1.9867,0,0,1,2.04-2.594c.1758-.0026.3517,0,.5276,0H46.6057c.1215-.4842.2413-.9571.3589-1.4307q.5772-2.3252,1.153-4.6506a1.932,1.932,0,0,1,2.06-1.6142q4.4958-.0007,8.9915,0A1.9044,1.9044,0,1,1,59.233,3.809q-3.7962.0048-7.5923-.0041c-.2081-.0006-.2837.0595-.3337.2616q-2.4323,9.8366-4.8775,19.67-2.3222,9.3561-4.6423,18.7129a2.5925,2.5925,0,0,1-.6489,1.2185,1.3268,1.3268,0,0,1-.9879.4117c-.6266,0-1.2531,0-1.8993.0183a3.6233,3.6233,0,0,1,1.8406,2.9138,3.4422,3.4422,0,0,1-1.4083,3.1219,3.5805,3.5805,0,0,1-5.0271-.6972A3.6271,3.6271,0,0,1,34.83,44.0916Zm2.16-25.0171h.2753c2.0944,0,4.1887-.0031,6.283.0056.1968.0008.2559-.0675.2992-.2442q.7473-3.05,1.5089-6.0959c.11-.442.217-.8846.3292-1.3422H37.94C37.6241,13.9522,37.31,16.497,36.9908,19.0745ZM4.5,11.3853c.0177.0942.0253.146.0372.1968q.8566,3.6485,1.71,7.2976c.0376.1615.107.199.2634.1986q3.0157-.0081,6.0315-.0043c.0658,0,.1316-.0089.21-.0146-.007-.0963-.01-.172-.0183-.2472-.2685-2.3846-.5408-4.7687-.8009-7.1542-.0232-.2124-.0809-.2784-.3-.2776-2.2933.0082-4.5866.005-6.88.0049Zm18.5239,7.6789V11.398H15.731l.8613,7.6662Zm3.8467-7.668v7.6594h6.2852c.3164-2.56.63-5.1022.9465-7.6594Zm8.7074,19.1061h.29c1.6049,0,3.21-.0041,4.8145.0052.2053.0012.2846-.0536.3342-.2579.4416-1.8184.8967-3.6335,1.3473-5.45.156-.629.3108-1.2584.4687-1.8979H36.5171C36.204,25.4351,35.8931,27.9511,35.5777,30.5023Zm-12.52-.0071V22.9018h-6.034l.8541,7.5934ZM7.2032,22.8927c.02.1023.0322.1772.05.2509q.84,3.5685,1.676,7.1379c.0416.1793.111.2259.2878.2251,1.5284-.0071,3.0568-.004,4.5852-.004h.2433l-.8556-7.61Zm25.4763.0093H26.8986v7.5874h4.8429Z"/></svg>