<svg id="Layer_1" data-name="Layer 1" xmlns="http://www.w3.org/2000/svg" xmlns:xlink="http://www.w3.org/1999/xlink" viewBox="0 0 144.3965 43.511"><defs><style>.cls-1{fill:none;}.cls-2{fill:#221f1f;}.cls-3{fill:#049347;}.cls-4{fill:#bc2127;}.cls-5{fill:#fff;}.cls-6{isolation:isolate;}.cls-7{clip-path:url(#clip-path);}.cls-8{fill:#09723b;}.cls-9{fill:#07743c;}.cls-10{fill:#0c743c;}.cls-11{clip-path:url(#clip-path-2);}.cls-12{fill:#106d38;}.cls-13{fill:#098a45;}.cls-14{clip-path:url(#clip-path-3);}.cls-15{fill:#0e703a;}.cls-16{fill:#0d713b;}.cls-17{clip-path:url(#clip-path-4);}.cls-18{fill:#8b181c;}.cls-19{clip-path:url(#clip-path-5);}.cls-20{fill:#8d191c;}.cls-21{fill:#881a1b;}.cls-22{fill:#b12225;}.cls-23{clip-path:url(#clip-path-6);}.cls-24{clip-path:url(#clip-path-7);}</style><clipPath id="clip-path"><path class="cls-1" d="M24.7,28.5963l3.6112.7362a2.2248,2.2248,0,0,0-.4461-.0447l-3.6112-.7362A2.2248,2.2248,0,0,1,24.7,28.5963Z"/></clipPath><clipPath id="clip-path-2"><path class="cls-1" d="M18.4677,43.4663,14.8565,42.73a2.4363,2.4363,0,0,1-1.8807-2.4891l3.6112.7362A2.4364,2.4364,0,0,0,18.4677,43.4663Z"/></clipPath><clipPath id="clip-path-3"><path class="cls-1" d="M16.8007,31.8271,13.19,31.0909a2.5422,2.5422,0,0,1,2.4453-2.5345l3.6112.7362A2.5422,2.5422,0,0,0,16.8007,31.8271Z"/></clipPath><clipPath id="clip-path-4"><path class="cls-1" d="M32.2317,14.5353l-2.93.7916a2.4623,2.4623,0,0,1-.5983.0848q-.0753.0013-.1515-.0019l2.93-.7916q.0762.0033.1514.0019A2.4624,2.4624,0,0,0,32.2317,14.5353Z"/></clipPath><clipPath id="clip-path-5"><path class="cls-1" d="M19.244.8768l2.93-.7916a2.5269,2.5269,0,0,0-1.8566,2.3461l-2.93.7916A2.527,2.527,0,0,1,19.244.8768Z"/></clipPath><clipPath id="clip-path-6"><path class="cls-1" d="M22.4028,14.2315l-2.93.7916a2.5517,2.5517,0,0,1-2.421-2.6431l2.93-.7916A2.5516,2.5516,0,0,0,22.4028,14.2315Z"/></clipPath><clipPath id="clip-path-7"><path class="cls-2" d="M20.6032,14.39l2.9133.3506q-.1122-.0135-.2274-.0162l-2.9133-.3506Q20.491,14.3769,20.6032,14.39Z"/></clipPath></defs><title>BUTO-NFT-Marketplace-assets</title><path class="cls-3" d="M28.438,33.7124c.6484.1438,1.2852.2758,1.919.3863.6326.1125,1.2619.1974,1.88.2473A8.3746,8.3746,0,0,0,34.031,34.31a3.699,3.699,0,0,0,.8035-.1917,2.6966,2.6966,0,0,0,.6761-.3422l.6661-.47.3873.7161c.0394.0729.0479.0951.0667.1367.0174.0385.0292.0716.0436.1078.0254.07.0482.139.0663.2077a2.541,2.541,0,0,1,.0778.4144,2.6679,2.6679,0,0,1-.04.8229,3.23,3.23,0,0,1-.6759,1.3815,4.7567,4.7567,0,0,1-1.0372.9386,7.0363,7.0363,0,0,1-1.1515.6387,11.1123,11.1123,0,0,1-2.4123.7431,13.3958,13.3958,0,0,1-2.4654.2494c.7512-.3507,1.4992-.662,2.2252-.9977a19.5067,19.5067,0,0,0,2.0782-1.0865,5.7765,5.7765,0,0,0,1.6217-1.3719,2.0171,2.0171,0,0,0,.3681-.7854,1.5289,1.5289,0,0,0,.0213-.3847,1.0837,1.0837,0,0,0-.03-.182c-.0068-.0293-.0157-.0563-.0239-.0819l-.0125-.0331c-.0011-.0049-.0136-.0287.002-.0005l1.0534.2462a4.3313,4.3313,0,0,1-2.1879.6637,7.37,7.37,0,0,1-2.091-.2342,10.4877,10.4877,0,0,1-1.904-.6859,9.9891,9.9891,0,0,1-.8854-.4663A7.7583,7.7583,0,0,1,28.438,33.7124Z"/><circle class="cls-3" cx="35.055" cy="29.5347" r="3.167"/><circle class="cls-4" cx="27.7249" cy="18.6703" r="2.8927"/><path class="cls-4" d="M23.21,14.44a19.1137,19.1137,0,0,0,.2977,3.1054,13.6835,13.6835,0,0,0,.8336,2.9063,9.04,9.04,0,0,0,1.5152,2.4833,7.9813,7.9813,0,0,0,2.225,1.7793l-.7482.025c.181-.1208.4023-.2771.5994-.4276.2021-.1535.4-.3148.5946-.4793a15.107,15.107,0,0,0,1.1219-1.0406,12.6864,12.6864,0,0,0,1.8685-2.3942,9.21,9.21,0,0,0,.6662-1.36,7.6484,7.6484,0,0,0,.4252-1.4632,8.9683,8.9683,0,0,0,.0194-3.14,6.987,6.987,0,0,1,.5413,1.5477l.0487.2029.0314.2057c.0194.1376.0433.2758.0586.4149a8.0154,8.0154,0,0,1,.0319.8414,8.3614,8.3614,0,0,1-.059.8465c-.0444.2794-.0891.5611-.16.8363a8.5806,8.5806,0,0,1-.5635,1.6086,11.4826,11.4826,0,0,1-1.8762,2.8158,14.7484,14.7484,0,0,1-1.1971,1.1882c-.2128.1839-.4288.3642-.652.5376-.2289.1751-.4395.3378-.7081.5094l-.37.2363-.3786-.2112a8.4452,8.4452,0,0,1-2.5977-2.1934c-.1814-.22-.334-.46-.4938-.6931-.1459-.2424-.2906-.4851-.413-.7381a9.1448,9.1448,0,0,1-.6173-1.5524,11.3965,11.3965,0,0,1-.4613-3.2293,12.3433,12.3433,0,0,1,.099-1.6052A9.6969,9.6969,0,0,1,23.21,14.44Z"/><path class="cls-5" d="M3.5125,31.5559a3.02,3.02,0,1,1,.0165,0Z"/><path class="cls-5" d="M3.546,24.9964l-.005.9925a2.55,2.55,0,1,1-.0144,0l.0194-.9925m0,0h-.02a3.5277,3.5277,0,0,0-.0163,7.0553h.02a3.5277,3.5277,0,0,0,.0162-7.0554Z"/><path class="cls-5" d="M12.87,29.692c-.1391.13-.2655.2691-.4111.39-.1475.1195-.2872.2436-.429.3644l-.2086.1833c-.0716.0587-.1483.1118-.2217.1676l-.4366.3341c-.1464.1084-.3028.203-.4522.3044-.2924.2122-.6179.37-.9216.5519a9.9562,9.9562,0,0,1-1.9538.767H7.8347c.0363-.05.077-.0961.1117-.1469a5.6233,5.6233,0,0,0,.3291-.5066,4.8662,4.8662,0,0,0,.2932-.5239c.0867-.18.1778-.3565.2592-.5374l.2137-.5528a10.4387,10.4387,0,0,0,.5251-2.2724,9.5757,9.5757,0,0,0,.0625-1.1516A6.8755,6.8755,0,0,0,9.5438,25.92c-.1966.7356-.4209,1.4429-.6783,2.13a16.5626,16.5626,0,0,1-.8827,1.9724,10.7328,10.7328,0,0,1-1.15,1.7412c-.1138.1278-.2242.2577-.3332.3885-.1142.1257-.242.2369-.3613.3563q-.0914.0877-.18.1782c-.0632.0553-.1307.1055-.1957.1586l-.3914.3163-1.4728,1.19,1.8462.1455c.0827.0065.132.0068.1913.0078s.1119-.0008.1668-.002c.11-.0013.2164-.0081.3217-.017.2131-.0124.4184-.0448.6254-.0742.2036-.0416.4094-.0755.6077-.1331a5.5413,5.5413,0,0,0,.5923-.1765,8.4045,8.4045,0,0,0,2.1615-1.1236c.1616-.1206.3158-.2509.4714-.3772a4.35,4.35,0,0,0,.4433-.4039c.1394-.143.287-.2759.4168-.4258l.3769-.4582c.0606-.0776.1241-.1522.1817-.2317l.1634-.2454c.1063-.1652.2147-.327.3153-.4934.1923-.339.3588-.6917.5162-1.0416C13.1482,29.4294,13.0111,29.5631,12.87,29.692Z"/><g class="cls-6"><g class="cls-6"><g class="cls-7"><g class="cls-6"><path class="cls-8" d="M27.8652,29.2878l-3.6112-.7362q.05,0,.099.0021l3.6112.7362q-.0492-.0021-.099-.0021"/><path class="cls-9" d="M27.9642,29.29l-3.6112-.7362a2.2055,2.2055,0,0,1,.3471.0426l3.6112.7362a2.2159,2.2159,0,0,0-.3471-.0426"/></g></g></g><polygon class="cls-10" points="19.246 29.293 15.635 28.556 24.254 28.552 27.865 29.288 19.246 29.293"/><g class="cls-6"><g class="cls-11"><g class="cls-6"><path class="cls-12" d="M18.4677,43.4663,14.8565,42.73a2.4363,2.4363,0,0,1-1.8807-2.4891l3.6112.7362a2.4364,2.4364,0,0,0,1.8807,2.4891"/></g></g></g><polygon class="cls-12" points="16.587 40.977 12.976 40.241 13.189 31.091 16.801 31.827 16.587 40.977"/><path class="cls-13" d="M27.8652,29.2878a2.4006,2.4006,0,0,1,2.327,2.5318l-.2137,9.15a2.5451,2.5451,0,0,1-2.4454,2.5364l-8.6191.0049a2.4012,2.4012,0,0,1-2.327-2.5338l.2137-9.15a2.5422,2.5422,0,0,1,2.4453-2.5345Z"/><g class="cls-6"><g class="cls-14"><g class="cls-6"><path class="cls-12" d="M16.8007,31.8271,13.19,31.0909a2.6732,2.6732,0,0,1,.61-1.6412l3.6113.7362a2.6727,2.6727,0,0,0-.61,1.6412"/><path class="cls-15" d="M17.4106,30.1859,13.7993,29.45a2.569,2.569,0,0,1,.4686-.4409l3.6113.7362a2.5626,2.5626,0,0,0-.4686.4409"/><path class="cls-16" d="M17.8792,29.745l-3.6113-.7362a2.4162,2.4162,0,0,1,.543-.297l3.6112.7363a2.409,2.409,0,0,0-.5429.2969"/><path class="cls-8" d="M18.4221,29.4481l-3.6112-.7363a2.2752,2.2752,0,0,1,.8239-.1554l3.6112.7362a2.2735,2.2735,0,0,0-.8239.1555"/></g></g></g></g><g class="cls-6"><g class="cls-6"><g class="cls-17"><g class="cls-6"><path class="cls-18" d="M32.2317,14.5353l-2.93.7916a2.4623,2.4623,0,0,1-.5983.0848q-.0753.0013-.1515-.0019l2.93-.7916q.0762.0033.1514.0019a2.4624,2.4624,0,0,0,.5984-.0848"/></g></g></g><g class="cls-6"><g class="cls-19"><g class="cls-6"><path class="cls-18" d="M20.3176,2.4313l-2.93.7916A2.5283,2.5283,0,0,1,19.1119.9165l2.93-.7916a2.528,2.528,0,0,0-1.7244,2.3064"/><path class="cls-20" d="M22.042.1249l-2.93.7916q.0653-.0216.1321-.04l2.93-.7916q-.0667.0182-.1322.04"/></g></g></g><polygon class="cls-21" points="31.482 14.618 28.552 15.41 19.473 15.023 22.403 14.231 31.482 14.618"/><polygon class="cls-21" points="19.982 11.588 17.052 12.38 17.387 3.223 20.318 2.431 19.982 11.588"/><path class="cls-22" d="M22.773,0q.0753-.0013.1514.0019L32.0017.389a2.5528,2.5528,0,0,1,2.4209,2.6431l-.3358,9.1571A2.517,2.517,0,0,1,31.6333,14.62q-.0753.0013-.1514-.0019l-9.0791-.3867a2.5516,2.5516,0,0,1-2.421-2.6431l.3358-9.1571A2.5186,2.5186,0,0,1,22.773,0Z"/><g class="cls-6"><g class="cls-23"><g class="cls-6"><path class="cls-18" d="M22.4028,14.2315l-2.93.7916a2.5517,2.5517,0,0,1-2.421-2.6431l2.93-.7916a2.5516,2.5516,0,0,0,2.421,2.6431"/></g></g></g></g><g class="cls-6"><g class="cls-6"><path class="cls-2" d="M20.6032,14.39l2.9133.3506q-.1122-.0135-.2274-.0162l-2.9133-.3506Q20.491,14.3769,20.6032,14.39Z"/><g class="cls-24"><g class="cls-6"><path class="cls-2" d="M23.2891,14.7248l-2.9133-.3506q.1152.0027.2274.0162l2.9133.3506q-.1122-.0135-.2274-.0162"/><path class="cls-5" d="M23.4763,15.1105c-.0639-.0071-.1283-.0122-.1938-.0135l-.0377-.0031-2.9133-.351.0556-.7412a2.5621,2.5621,0,0,1,.2611.02l2.9128.35Z"/></g></g></g><path class="cls-2" d="M14.0555,28.3931a1.9924,1.9924,0,0,1-1.4071-.6322,2.1788,2.1788,0,0,1-.5939-1.579l.2768-9.1629a2.1545,2.1545,0,0,1,2.1034-2.1236l8.8462.2016a1.992,1.992,0,0,1,1.4061.6322,2.1793,2.1793,0,0,1,.5949,1.579l-.2768,9.1628a2.1544,2.1544,0,0,1-2.1033,2.1237Z"/><path class="cls-5" d="M14.4353,14.5233l.0251.7447,8.8117.201a1.6235,1.6235,0,0,1,1.1455.5169,1.81,1.81,0,0,1,.4926,1.3113L24.6333,26.46a1.7853,1.7853,0,0,1-1.7571,1.7618h-.0005l-8.8118-.2009a1.6233,1.6233,0,0,1-1.1454-.5169,1.81,1.81,0,0,1-.4926-1.3113l.2769-9.1632a1.7809,1.7809,0,0,1,1.7288-1.7623l.0037-.7443m0,0a2.5244,2.5244,0,0,0-2.4765,2.4841l-.2769,9.1632a2.4772,2.4772,0,0,0,2.365,2.5949l8.8118.2009.0421.0006a2.5244,2.5244,0,0,0,2.4765-2.4841l.2769-9.1632a2.4771,2.4771,0,0,0-2.3651-2.5949l-8.8117-.2009-.0421-.0006Z"/><path class="cls-2" d="M10.9509,28.03a2.1267,2.1267,0,0,1-1.81-2.1977l.2769-9.1638a2.3829,2.3829,0,0,1,.0206-.2383c.022-.1278.0309-.1772.0438-.2266l.066-.2207.0893-.2137.11-.202.1191-.1749a2.2925,2.2925,0,0,1,.1707-.2017,2.086,2.086,0,0,1,.2006-.188c.0846-.0635.1469-.1068.211-.1472a2.2984,2.2984,0,0,1,.2605-.1383,1.922,1.922,0,0,1,.2728-.0974,2.54,2.54,0,0,1,.2707-.0549,2.2356,2.2356,0,0,1,.2725-.019l1.44.0325a2.8465,2.8465,0,0,0-.249.1722,2.9932,2.9932,0,0,0-.2541.2217c-.0984.1051-.2037.2277-.2037.2277s-.1327.1738-.1678.2259l-.1545.2581s-.1077.2262-.13.2833l-.0452.1151c-.0216.0619-.0867.2865-.0867.2865-.0178.0755-.06.3108-.06.3108a2.8505,2.8505,0,0,0-.0268.3187L11.31,26.1587a2.9446,2.9446,0,0,0,.7,1.9983Z"/><path class="cls-5" d="M11.53,14.1728a2.4426,2.4426,0,0,0-.2518.0129l-.0267.0012c-.017.0019-.033.007-.05.0093a2.3161,2.3161,0,0,0-.241.0448c-.0259.0062-.0518.0118-.0775.0189a2.3733,2.3733,0,0,0-.2853.0976l-.0085.0029c-.01.0044-.02.0108-.03.0153a2.4237,2.4237,0,0,0-.2344.12c-.0245.0141-.0486.0284-.0726.0434a2.51,2.51,0,0,0-.2207.154l-.0231.0162-.006.0053a2.5214,2.5214,0,0,0-.1912.1715c-.0147.0145-.0279.0308-.0422.0458-.0452.047-.0894.0949-.1311.1454-.02.0243-.0383.05-.0575.0753-.0335.0439-.0663.088-.097.134-.0193.0289-.0371.0586-.0551.0883-.0276.0451-.054.0905-.0789.1374-.0168.0319-.0328.0642-.0484.0968-.0227.0475-.0436.0957-.0635.1447-.0136.0336-.0269.0672-.0393.1015-.0183.0514-.0342.1038-.0494.1567-.01.0335-.02.0666-.0282.1007-.0144.0588-.0253.1188-.0356.1791-.0051.03-.0118.0588-.0159.0889a2.649,2.649,0,0,0-.0237.2766L8.7685,25.82a2.4892,2.4892,0,0,0,2.1378,2.5787l2.9133.3506a2.4891,2.4891,0,0,1-2.1377-2.5787l.2769-9.1632a2.6255,2.6255,0,0,1,.0237-.2769c.0041-.03.0107-.0584.0157-.0877.01-.0606.0214-.121.0358-.18.0083-.0339.0186-.067.0282-.1.0152-.053.0312-.1057.05-.1572.0121-.034.0255-.0674.039-.1007q.03-.0739.0638-.1455c.0155-.0325.0315-.0648.0483-.0965.0248-.0467.0514-.0923.0788-.1373.0182-.03.036-.06.0553-.0885.0306-.0459.0634-.09.0968-.1337.0192-.0251.0376-.0511.0576-.0755.0418-.0509.0864-.0991.1319-.1464.0141-.0146.0269-.03.0413-.0447a2.567,2.567,0,0,1,.1913-.1717l.0289-.0213a2.4993,2.4993,0,0,1,.2212-.1543c.0237-.0148.0477-.0291.072-.0431a2.4179,2.4179,0,0,1,.2347-.12c.013-.0057.0254-.0127.0386-.0182a2.3808,2.3808,0,0,1,.2854-.0976c.0254-.0071.0515-.0127.0773-.0189a2.3278,2.3278,0,0,1,.2411-.0448c.0256-.0034.0508-.0079.0765-.01a2.4445,2.4445,0,0,1,.2519-.0129l.034,0,8.8117.2009-2.9132-.3506-8.8119-.2009-.034,0Z"/></g><path class="cls-5" d="M67.302,3.149C67.3014,1.45,65.7115.3651,63.2093.367L57.97.37l.0064,11.03,5.4438-.0026c2.5961-.0014,4.2479-1.1833,4.2467-3.0714a2.7228,2.7228,0,0,0-2.2676-2.7835A2.4461,2.4461,0,0,0,67.302,3.149Zm-6.4675-.5308,2.2186-.0014c.787-.0009,1.2911.3768,1.2911,1.0378,0,.692-.5027,1.1014-1.29,1.1023l-2.2186.0014Zm2.2224,6.5449-2.2186.0014L60.837,6.8354l2.2186-.0014c1.007-.0007,1.6368.44,1.6371,1.1316C64.6933,8.7207,64.064,9.1624,63.0569,9.1631Z"/><polygon class="cls-5" points="76.79 11.389 76.788 8.934 72.115 8.936 72.11 0.361 69.23 0.363 69.237 11.393 76.79 11.389"/><path class="cls-5" d="M80.7177,9.4353l4.7672-.0021.7564,1.951,3.0686-.002L84.6772.355,81.72.3566,76.99,11.3889l2.9581-.0015Zm2.4031-6.1368,1.5131,3.9321-3.0517.0011Z"/><path class="cls-5" d="M95.0787,11.5044a6.59,6.59,0,0,0,4.5784-2.0482L97.9725,7.6478A4.091,4.091,0,0,1,95.2351,8.94,3.0025,3.0025,0,0,1,92.2433,5.81a2.986,2.986,0,0,1,2.9879-3.1021A3.7566,3.7566,0,0,1,97.97,4.1546l1.6665-1.9989A6.3213,6.3213,0,0,0,95.1829.27a5.6217,5.6217,0,1,0-.1042,11.2341Z"/><polygon class="cls-5" points="103.759 11.374 103.758 8.683 105.173 7.108 108.039 11.371 111.485 11.369 107.138 4.905 111.226 0.34 107.891 0.341 103.756 4.97 103.753 0.344 100.873 0.346 100.88 11.376 103.759 11.374"/><path class="cls-5" d="M65.0784,22.4975a2.0892,2.0892,0,0,1-2.1541,2.2989,2.1522,2.1522,0,0,1-2.2516-2.2959l-.0036-6.4038-2.8791.001.0036,6.4038c.0018,2.9107,2.0008,4.7517,5.1164,4.75,3.1-.0018,5.05-1.8452,5.0481-4.7558l-.0036-6.4039-2.88.002Z"/><path class="cls-5" d="M74.9239,24.066l1.6066,3.0515,3.2572-.002-2.2993-3.6026a3.7272,3.7272,0,0,0,1.9647-3.557c-.0012-2.4541-1.67-3.8689-4.5966-3.8681L69.9,16.0909l.0064,11.03,2.88-.002-.0016-3.0522,2.0771-.0011Zm-2.1411-2.2973-.0019-3.3827,2.0926-.001c1.1646,0,1.8416.5821,1.8419,1.6676a1.61,1.61,0,0,1-1.84,1.715Z"/><path class="cls-5" d="M88.7164,21.2568a2.446,2.446,0,0,0,1.9026-2.3931c-.0007-1.6991-1.5906-2.784-4.0927-2.7821l-5.2393.0027.0064,11.03,5.4438-.0026c2.5962-.0015,4.2479-1.1834,4.2468-3.0715A2.7229,2.7229,0,0,0,88.7164,21.2568Zm-4.565-2.9239,2.2186-.0014c.7871-.0009,1.2911.3767,1.2912,1.0377,0,.6921-.5028,1.1015-1.29,1.1024l-2.2186.0014Zm2.2225,6.5449-2.2186.0014L84.1539,22.55l2.2186-.0014c1.0071-.0008,1.6368.4395,1.6372,1.1316C88.01,24.4353,87.3809,24.877,86.3739,24.8778Z"/><path class="cls-5" d="M96.135,16.0758l-4.73,11.0333,2.9582-.0015.77-1.9521,4.7678-.0021.7563,1.95,3.0687-.0019L99.0931,16.0742Zm-.1374,6.8761,1.5391-3.9341L99.05,22.95Z"/><polygon class="cls-5" points="107.237 16.07 104.705 16.072 104.711 27.102 107.401 27.1 107.397 20.491 112.405 27.097 114.923 27.096 114.916 16.066 112.241 16.067 112.245 22.707 107.237 16.07"/><rect class="cls-5" x="117.0691" y="16.0631" width="2.8796" height="11.0301"/><path class="cls-5" d="M126.3841,24.8381a7.0379,7.0379,0,0,1-3.9975-1.665l-1.1158,2.2508a8.2849,8.2849,0,0,0,5.0831,1.7587c2.4546-.0012,4.4367-1.1505,4.4354-3.4-.0023-3.9652-5.808-2.9244-5.809-4.7495,0-.503.456-.7547,1.1481-.7551a8.5635,8.5635,0,0,1,3.557,1.1772l1.0844-2.282a8.4575,8.4575,0,0,0-4.4067-1.2405c-2.6591.0021-4.405,1.3085-4.4038,3.37.0021,3.9022,5.8078,2.7655,5.8086,4.6381C127.7683,24.5233,127.2337,24.8375,126.3841,24.8381Z"/><polygon class="cls-5" points="144.39 16.049 141.243 16.05 138.32 22.488 135.39 16.054 132.242 16.055 132.249 27.085 134.813 27.084 134.809 20.097 137.378 25.982 139.266 25.981 141.827 20.094 141.847 27.08 144.396 27.079 144.39 16.049"/><polygon class="cls-5" points="66.486 34.196 66.484 31.82 57.028 31.826 57.029 34.201 60.302 34.199 60.307 42.853 63.187 42.851 63.182 34.197 66.486 34.196"/><path class="cls-5" d="M72.3492,31.7382A5.6269,5.6269,0,1,0,78.3163,37.32,5.6332,5.6332,0,0,0,72.3492,31.7382Zm.0367,8.7786a3.1116,3.1116,0,0,1-3.0386-3.176,3.0732,3.0732,0,0,1,3.0351-3.1483,3.1681,3.1681,0,0,1,.0035,6.3243Z"/><path class="cls-5" d="M89.6263,42.8359,87.327,39.2342a3.727,3.727,0,0,0,1.9646-3.5569c-.0012-2.4542-1.67-3.8689-4.5965-3.8672l-4.9563.0021.0065,11.0291,2.8791-.001-.0016-3.0512L84.7,39.788l.0626-.0007,1.6066,3.0506ZM84.714,37.489l-2.0927.0021L82.62,34.1084l2.0926-.0021c1.1646,0,1.8416.5821,1.8419,1.6677A1.61,1.61,0,0,1,84.714,37.489Z"/><path class="cls-5" d="M96.38,31.7246a5.6269,5.6269,0,1,0,5.9671,5.5819A5.6324,5.6324,0,0,0,96.38,31.7246Zm.0367,8.7786a3.1116,3.1116,0,0,1-3.0386-3.176,3.0732,3.0732,0,0,1,3.0351-3.1483,3.1681,3.1681,0,0,1,.0035,6.3243Z"/><polygon class="cls-5" points="113.981 31.793 111.306 31.795 111.31 38.435 106.303 31.797 103.77 31.799 103.776 42.828 106.467 42.827 106.463 36.219 111.47 42.824 113.988 42.822 113.981 31.793"/><polygon class="cls-5" points="121.326 34.165 124.63 34.162 124.628 31.787 115.171 31.792 115.173 34.168 118.446 34.166 118.451 42.819 121.33 42.818 121.326 34.165"/><path class="cls-5" d="M130.493,31.7046a5.6269,5.6269,0,1,0,5.9667,5.5829A5.6332,5.6332,0,0,0,130.493,31.7046Zm.0367,8.7787a3.11,3.11,0,0,1-3.0386-3.1751,3.0747,3.0747,0,0,1,3.0351-3.1493,3.1682,3.1682,0,0,1,.0035,6.3244Z"/><rect class="cls-5" x="46.8588" y="0.0709" width="0.9925" height="43.3788"/></svg>